inDegrees=yes
name=ik_Xsens_3
DataType=double
version=3
OpenSimVersion=4.4-2022-07-23-0e9fedc
endheader
time	pelvis_tilt	pelvis_list	pelvis_rotation	pelvis_tx	pelvis_ty	pelvis_tz	hip_flexion_r	hip_adduction_r	hip_rotation_r	knee_angle_r	knee_angle_r_beta	ankle_angle_r	subtalar_angle_r	mtp_angle_r	hip_flexion_l	hip_adduction_l	hip_rotation_l	knee_angle_l	knee_angle_l_beta	ankle_angle_l	subtalar_angle_l	mtp_angle_l	lumbar_extension	lumbar_bending	lumbar_rotation	arm_flex_r	arm_add_r	arm_rot_r	elbow_flex_r	pro_sup_r	wrist_flex_r	wrist_dev_r	arm_flex_l	arm_add_l	arm_rot_l	elbow_flex_l	pro_sup_l	wrist_flex_l	wrist_dev_l
54.56666666666666	-3.448364295351686e-34	0	-1.20692750337309e-33	0	0.93	0	-1.04269756922533e-35	-1.460439086149119e-55	0	0	-6.20191575964839e-40	2.787158142469237e-40	0	0	-1.04269756922533e-35	-1.460439086149119e-55	0	0	-6.20191575964839e-40	2.787158142469237e-40	0	0	-3.448364295351686e-34	0	-1.20692750337309e-33	0.0002295095070658641	0.0001662589815294114	-7.960246691328157e-05	-9.78596382991294e-05	-0.0001099872557453325	0	-5.274018343323864e-40	-52.15613174417111	-25.40740142835741	54.97462903582939	44.96910774753962	-62.78619361057673	0	-5.274018343323864e-40
54.58333333333334	0	3.448364295351686e-34	0	0	0.93	0	1.842694105209667e-38	0	0	0	2.288969544048091e-38	2.759289320333922e-44	0	0	1.842694105209667e-38	0	0	0	2.288969544048091e-38	2.759289320333922e-44	0	0	0	3.448364295351686e-34	0	0.0002295095070658641	0.0001662589815294114	-7.960246691328157e-05	-9.78596382991294e-05	-0.0001099872557453325	0	-1.077613847518685e-35	-51.9565733185771	-25.52836175759443	55.14123230594511	44.97353483187872	-62.44694804395461	0	-1.077613847518685e-35
54.6	1.724182147675843e-33	-5.789050920738258e-52	-5.17254644302753e-34	0	0.93	0	1.310441311064337e-35	-1.077613842297402e-35	0	0	-6.20191575964839e-40	2.731699158829801e-48	0	0	1.310441311064337e-35	-1.077613842297402e-35	0	0	-6.20191575964839e-40	2.731699158829801e-48	0	0	1.724182147675843e-33	-5.789050920738258e-52	-5.17254644302753e-34	0.0002295095070658641	0.0001662589815294114	-7.960246691328157e-05	-9.78596382991294e-05	-0.0001099872557453325	0	2.299426636560637e-37	-51.73914381664282	-25.66161552360799	55.3263434370449	44.97698008932401	-62.07281635205763	0	2.299426636560637e-37
54.61666666666667	8.622617680412357e-34	-1.040781409369099e-69	9.34681015135436e-54	0	0.93	0	-7.720977743863597e-38	0	0	0	0	2.704384871626433e-52	0	0	-7.720977743863597e-38	0	0	0	0	2.704384871626433e-52	0	0	8.622617680412357e-34	-1.040781409369099e-69	9.34681015135436e-54	0.0002295095070658641	0.0001662589815294114	-7.960246691328157e-05	-9.78596382991294e-05	-0.0001099872557453325	0	2.276434646629724e-41	-51.53385777265657	-25.78903241505404	55.50306917628301	44.97831853137927	-61.71671702567026	0	2.276434646629724e-41
54.63333333333333	-1.723328507671842e-34	0	0	0	0.93	0	-1.669825991234027e-37	0	0	0	0	2.677343700253943e-56	0	0	-1.669825991234027e-37	0	0	0	0	2.677343700253943e-56	0	0	-1.723328507671842e-34	0	0	0.0002295095070658641	0.0001662589815294114	-7.960246691328157e-05	-9.78596382991294e-05	-0.0001099872557453325	0	-5.388069209233337e-36	-51.30928967698497	-25.91825716725996	55.66444722665574	44.98190285071813	-61.3624229006882	0	-5.388069209233337e-36
54.65	-1.98280946982722e-33	0	-1.379345718140675e-33	0	0.93	0	3.468157028366253e-38	0	0	0	0	2.650572913824386e-60	0	0	3.468157028366253e-38	0	0	0	0	2.650572913824386e-60	0	0	-1.98280946982722e-33	0	-1.379345718140675e-33	0.0002295095070658641	0.0001662589815294114	-7.960246691328157e-05	-9.78596382991294e-05	-0.0001099872557453325	0	-5.334193851334959e-40	-51.08252333341237	-26.05589304982744	55.82382228678768	44.97737057052422	-61.00639027723174	0	-5.334193851334959e-40
54.66666666666666	0	-2.963438066317855e-34	0	0	0.93	0	2.879788832408147e-38	0	0	4.340198946050102e-38	0	2.624069808755955e-64	0	0	2.879788832408147e-38	0	0	4.340198946050102e-38	0	2.624069808755955e-64	0	0	0	-2.963438066317855e-34	0	0.0002295095070658641	0.0001662589815294114	-7.960246691328157e-05	-9.78596382991294e-05	-0.0001099872557453325	0	-5.280857193678839e-44	-50.81523160424723	-26.22415193061727	56.00356940931304	44.96390753577246	-60.59343842295417	0	-5.280857193678839e-44
54.68333333333333	-2.262989068824544e-34	0	5.17254644302753e-34	0	0.93	0	5.982663907522283e-38	0	0	4.154383284208397e-38	0	2.62381002558511e-66	0	0	5.982663907522283e-38	0	0	4.154383284208397e-38	0	2.62381002558511e-66	0	0	-2.262989068824544e-34	0	5.17254644302753e-34	0.0002295095070658641	0.0001662589815294114	-7.960246691328157e-05	-9.78596382991294e-05	-0.0001099872557453325	0	-5.228053849796016e-48	-50.47221325835153	-26.4546116798186	56.23671095483549	44.93232398261653	-60.05703963115403	0	-5.228053849796016e-48
54.7	4.661905145364649e-52	0	-2.063846542850594e-33	0	0.93	0	4.422610785542573e-39	0	0	0	2.350988701644575e-38	2.623550268132763e-68	0	0	4.422610785542573e-39	0	0	0	2.350988701644575e-38	2.623550268132763e-68	0	0	4.661905145364649e-52	0	-2.063846542850594e-33	0.0002295095070658641	0.0001662589815294114	-7.960246691328157e-05	-9.78596382991294e-05	-0.0001099872557453325	0	-5.22753627194727e-50	-50.04960774659009	-26.75568693325047	56.55117123476555	44.88090289315761	-59.36263474500836	0	-5.22753627194727e-50
54.71666666666667	3.689738913441538e-13	2.502490164690164e-13	4.823950629841436e-13	0	0.93	0	4.088437531832869e-37	-6.107414297240057e-29	0	1.561507711298723e-07	2.725345305121888e-09	6.399374654366991e-37	0	0	4.088437531832869e-37	-6.107414297240057e-29	0	1.561507711298723e-07	2.725345305121888e-09	6.399374654366991e-37	0	0	3.689738913441524e-13	2.50249016469015e-13	4.823950629841443e-13	0.0002295095070658641	0.0001662589815294114	-7.960246691328157e-05	-9.78596382991294e-05	-0.0001099872557453325	0	2.80358005798085e-37	-49.60620682311747	-27.06055253517258	56.86862499480372	44.83200127481128	-58.64807467317019	0	2.80358005798085e-37
54.73333333333333	-1.379345718140675e-33	2.262989068824544e-34	0	0	0.93	0	-1.13345318740566e-36	0	0	2.22131188643877e-37	0	6.335387243210672e-41	0	0	-1.13345318740566e-36	0	0	2.22131188643877e-37	0	6.335387243210672e-41	0	0	-6.896728590703373e-34	3.448364295351686e-34	6.896728590703373e-34	0.0002295095070658641	0.0001662589815294114	-7.960246691328157e-05	-9.78596382991294e-05	-0.0001099872557453325	0	2.775547032948187e-41	-49.35914327660684	-27.20258832885677	57.02360665355336	44.82495807039633	-58.27807781022944	0	2.775547032948187e-41
54.75	-1.077520749704623e-34	-8.618670376960719e-35	0	0	0.93	0	3.182096164168194e-36	3.373097848828519e-37	0	0	2.454664372837609e-42	6.27203964281835e-45	0	0	3.182096164168194e-36	3.373097848828519e-37	0	0	2.454664372837609e-42	6.27203964281835e-45	0	0	-1.077520749704623e-34	-8.617496854312934e-35	0	0.0002295095070658641	0.0001662589815294114	-7.960246691328157e-05	-9.78596382991294e-05	-0.0001099872557453325	0	-6.699559514671127e-36	-49.31210900911042	-27.19918592068279	56.95603132098896	44.83280048376858	-58.31775769287511	0	-6.699559514671127e-36
54.76666666666667	0	0	0	0	0.93	0	1.781824592828569e-37	0	0	0	2.454664372837609e-42	6.209325455715658e-49	0	0	1.781824592828569e-37	0	0	0	2.454664372837609e-42	6.209325455715658e-49	0	0	0	0	0	0.0002295095070658641	0.0001662589815294114	-7.960246691328157e-05	-9.78596382991294e-05	-0.0001099872557453325	0	-6.632570552095072e-40	-49.29263581228845	-27.16676499636375	56.82077604655958	44.84430815708097	-58.45570983212856	0	-6.632570552095072e-40
54.78333333333333	5.17254644302753e-34	0	0	0	0.93	0	3.996783959176687e-38	3.259488638567136e-38	0	0	2.454664372837609e-42	6.147238348396924e-53	0	0	3.996783959176687e-38	3.259488638567136e-38	0	0	2.454664372837609e-42	6.147238348396924e-53	0	0	5.17254644302753e-34	0	0	0.0002295095070658641	0.0001662589815294114	-7.960246691328157e-05	-9.78596382991294e-05	-0.0001099872557453325	0	-6.566251437532562e-44	-49.23528699543081	-27.18748957819071	56.74945059355421	44.83281739073426	-58.48697197288536	0	-6.566251437532562e-44
54.8	7.758819664541295e-34	9.483001812217137e-34	1.050673496239967e-33	0	0.93	0	1.131818818149693e-37	1.711452054080999e-57	0	1.445472536391392e-39	2.306400539623074e-40	6.085772050684998e-57	0	0	1.131818818149693e-37	1.711452054080999e-57	0	1.445472536391392e-39	2.306400539623074e-40	6.085772050684998e-57	0	0	7.758819664541295e-34	9.483001812217137e-34	1.050673496239967e-33	0.0002295095070658641	0.0001662589815294114	-7.960246691328157e-05	-9.78596382991294e-05	-0.0001099872557453325	0	-1.920905439995705e-37	-49.12427505881021	-27.25586671879391	56.71922129275474	44.80560729653219	-58.42622197234761	0	-1.920905439995705e-37
54.81666666666666	1.163822949681194e-33	-6.465683053784412e-35	0	0	0.93	0	0	0	0	0	0	0	0	0	0	0	0	0	0	0	0	0	0	0	0	0.0002295095068056929	0.0001662588776946109	-7.960235408261902e-05	-9.785914363695885e-05	-0.0001099874350318169	0	0	-48.97433431554084	-27.36924153981528	56.741189986804	44.76181615651923	-58.27260813307289	0	0
54.83333333333334	8.620910738379216e-34	-4.310455369189608e-35	1.805003185848148e-33	0	0.93	0	-6.760529503137219e-36	3.76225279760874e-38	0	1.445996669676098e-38	7.123311349149639e-41	0	0	0	-6.760529503137219e-36	3.76225279760874e-38	0	1.445996669676098e-38	7.123311349149639e-41	0	0	0	8.620910738379216e-34	-4.310455369189608e-35	1.805003185848148e-33	0.0002295095068056929	0.0001662588776946109	-7.960235408261902e-05	-9.785914363695885e-05	-0.0001099874350318169	0	2.105859949533686e-36	-48.77901273206346	-27.52176780907824	56.80302131175032	44.70703882117638	-58.03592959157123	0	2.105859949533686e-36
